<svg width="26" height="26" viewBox="0 0 26 26" fill="none" xmlns="http://www.w3.org/2000/svg">
<path d="M8.26044 6.93329L11.2938 3.00621C11.5104 2.71732 11.7677 2.50517 12.0656 2.36975C12.3636 2.23433 12.675 2.16663 13 2.16663C13.325 2.16663 13.6365 2.23433 13.9344 2.36975C14.2323 2.50517 14.4896 2.71732 14.7063 3.00621L17.7396 6.93329L22.3438 8.47704C22.8132 8.62149 23.1834 8.88781 23.4542 9.276C23.725 9.6642 23.8604 10.093 23.8604 10.5625C23.8604 10.7791 23.8288 10.9958 23.7656 11.2125C23.7025 11.4291 23.5986 11.6368 23.4542 11.8354L20.475 16.0604L20.5834 20.502C20.6014 21.134 20.3938 21.6666 19.9604 22.1C19.5271 22.5333 19.0215 22.75 18.4438 22.75C18.4077 22.75 18.209 22.7229 17.8479 22.6687L13 21.3145L8.1521 22.6687C8.06183 22.7048 7.96252 22.7274 7.85419 22.7364C7.74585 22.7454 7.64655 22.75 7.55627 22.75C6.97849 22.75 6.47294 22.5333 6.0396 22.1C5.60627 21.6666 5.39863 21.134 5.41669 20.502L5.52502 16.0333L2.57294 11.8354C2.42849 11.6368 2.32467 11.4291 2.26148 11.2125C2.19828 10.9958 2.16669 10.7791 2.16669 10.5625C2.16669 10.1111 2.29759 9.69128 2.5594 9.30308C2.8212 8.91489 3.18683 8.63954 3.65627 8.47704L8.26044 6.93329ZM9.58752 8.80204L4.33335 10.5354L7.69169 15.3833L7.58335 20.5562L13 19.0666L18.4167 20.5833L18.3084 15.3833L21.6667 10.5895L16.4125 8.80204L13 4.33329L9.58752 8.80204Z" fill="#EB2D2E" fill-opacity="0.7"/>
</svg>
