<svg width="50" height="50" viewBox="0 0 50 50" fill="none" xmlns="http://www.w3.org/2000/svg">
<g id="Frame">
<path id="Vector" d="M18.75 29.6875C18.0209 29.6875 17.4045 29.4357 16.9011 28.9323C16.3976 28.4288 16.1459 27.8125 16.1459 27.0833C16.1459 26.3541 16.3976 25.7378 16.9011 25.2343C17.4045 24.7309 18.0209 24.4791 18.75 24.4791C19.4792 24.4791 20.0955 24.7309 20.599 25.2343C21.1025 25.7378 21.3542 26.3541 21.3542 27.0833C21.3542 27.8125 21.1025 28.4288 20.599 28.9323C20.0955 29.4357 19.4792 29.6875 18.75 29.6875ZM31.25 29.6875C30.5209 29.6875 29.9045 29.4357 29.4011 28.9323C28.8976 28.4288 28.6459 27.8125 28.6459 27.0833C28.6459 26.3541 28.8976 25.7378 29.4011 25.2343C29.9045 24.7309 30.5209 24.4791 31.25 24.4791C31.9792 24.4791 32.5955 24.7309 33.099 25.2343C33.6025 25.7378 33.8542 26.3541 33.8542 27.0833C33.8542 27.8125 33.6025 28.4288 33.099 28.9323C32.5955 29.4357 31.9792 29.6875 31.25 29.6875ZM25 41.6666C29.6528 41.6666 33.5938 40.052 36.8229 36.8229C40.0521 33.5937 41.6667 29.6527 41.6667 25C41.6667 24.1666 41.6146 23.3593 41.5104 22.5781C41.4063 21.7968 41.2153 21.0416 40.9375 20.3125C40.2084 20.4861 39.4792 20.6163 38.75 20.7031C38.0209 20.7899 37.257 20.8333 36.4584 20.8333C33.2986 20.8333 30.3125 20.1562 27.5 18.802C24.6875 17.4479 22.2917 15.5555 20.3125 13.125C19.2014 15.8333 17.6129 18.1857 15.5469 20.1823C13.4809 22.1788 11.0764 23.6805 8.33335 24.6875V25C8.33335 29.6527 9.94794 33.5937 13.1771 36.8229C16.4063 40.052 20.3472 41.6666 25 41.6666ZM25 45.8333C22.1181 45.8333 19.4097 45.2864 16.875 44.1927C14.3403 43.0989 12.1354 41.6145 10.2604 39.7395C8.38544 37.8645 6.90106 35.6597 5.80731 33.125C4.71356 30.5902 4.16669 27.8819 4.16669 25C4.16669 22.118 4.71356 19.4097 5.80731 16.875C6.90106 14.3402 8.38544 12.1354 10.2604 10.2604C12.1354 8.38538 14.3403 6.901 16.875 5.80725C19.4097 4.7135 22.1181 4.16663 25 4.16663C27.882 4.16663 30.5903 4.7135 33.125 5.80725C35.6597 6.901 37.8646 8.38538 39.7396 10.2604C41.6146 12.1354 43.099 14.3402 44.1927 16.875C45.2865 19.4097 45.8334 22.118 45.8334 25C45.8334 27.8819 45.2865 30.5902 44.1927 33.125C43.099 35.6597 41.6146 37.8645 39.7396 39.7395C37.8646 41.6145 35.6597 43.0989 33.125 44.1927C30.5903 45.2864 27.882 45.8333 25 45.8333ZM22.1875 8.59371C23.6459 11.0243 25.625 12.9774 28.125 14.4531C30.625 15.9288 33.4028 16.6666 36.4584 16.6666C36.9445 16.6666 37.4132 16.6406 37.8646 16.5885C38.316 16.5364 38.7847 16.4757 39.2709 16.4062C37.8125 13.9757 35.8334 12.0225 33.3334 10.5468C30.8334 9.07114 28.0556 8.33329 25 8.33329C24.5139 8.33329 24.0452 8.35933 23.5938 8.41142C23.1424 8.4635 22.6736 8.52427 22.1875 8.59371ZM9.21877 19.7395C10.9896 18.7326 12.5347 17.4305 13.8542 15.8333C15.1736 14.2361 16.1632 12.4479 16.8229 10.4687C15.0521 11.4757 13.507 12.7777 12.1875 14.375C10.8681 15.9722 9.87849 17.7604 9.21877 19.7395Z" fill="#B9944C"/>
</g>
</svg>
