<svg width="31" height="31" viewBox="0 0 31 31" fill="none" xmlns="http://www.w3.org/2000/svg">
<path d="M10.6666 18.5415C10.1416 18.5415 9.69788 18.3603 9.33538 17.9978C8.97288 17.6353 8.79163 17.1915 8.79163 16.6665C8.79163 16.1415 8.97288 15.6978 9.33538 15.3353C9.69788 14.9728 10.1416 14.7915 10.6666 14.7915C11.1916 14.7915 11.6354 14.9728 11.9979 15.3353C12.3604 15.6978 12.5416 16.1415 12.5416 16.6665C12.5416 17.1915 12.3604 17.6353 11.9979 17.9978C11.6354 18.3603 11.1916 18.5415 10.6666 18.5415ZM19.6666 18.5415C19.1416 18.5415 18.6979 18.3603 18.3354 17.9978C17.9729 17.6353 17.7916 17.1915 17.7916 16.6665C17.7916 16.1415 17.9729 15.6978 18.3354 15.3353C18.6979 14.9728 19.1416 14.7915 19.6666 14.7915C20.1916 14.7915 20.6354 14.9728 20.9979 15.3353C21.3604 15.6978 21.5416 16.1415 21.5416 16.6665C21.5416 17.1915 21.3604 17.6353 20.9979 17.9978C20.6354 18.3603 20.1916 18.5415 19.6666 18.5415ZM15.1666 27.1665C18.5166 27.1665 21.3541 26.004 23.6791 23.679C26.0041 21.354 27.1666 18.5165 27.1666 15.1665C27.1666 14.5665 27.1291 13.9853 27.0541 13.4228C26.9791 12.8603 26.8416 12.3165 26.6416 11.7915C26.1166 11.9165 25.5916 12.0103 25.0666 12.0728C24.5416 12.1353 23.9916 12.1665 23.4166 12.1665C21.1416 12.1665 18.9916 11.679 16.9666 10.704C14.9416 9.729 13.2166 8.3665 11.7916 6.6165C10.9916 8.5665 9.84788 10.2603 8.36038 11.6978C6.87288 13.1353 5.14163 14.2165 3.16663 14.9415V15.1665C3.16663 18.5165 4.32913 21.354 6.65413 23.679C8.97913 26.004 11.8166 27.1665 15.1666 27.1665ZM15.1666 30.1665C13.0916 30.1665 11.1416 29.7728 9.31663 28.9853C7.49163 28.1978 5.90413 27.129 4.55413 25.779C3.20413 24.429 2.13538 22.8415 1.34788 21.0165C0.560376 19.1915 0.166626 17.2415 0.166626 15.1665C0.166626 13.0915 0.560376 11.1415 1.34788 9.3165C2.13538 7.4915 3.20413 5.904 4.55413 4.554C5.90413 3.204 7.49163 2.13525 9.31663 1.34775C11.1416 0.560254 13.0916 0.166504 15.1666 0.166504C17.2416 0.166504 19.1916 0.560254 21.0166 1.34775C22.8416 2.13525 24.4291 3.204 25.7791 4.554C27.1291 5.904 28.1979 7.4915 28.9854 9.3165C29.7729 11.1415 30.1666 13.0915 30.1666 15.1665C30.1666 17.2415 29.7729 19.1915 28.9854 21.0165C28.1979 22.8415 27.1291 24.429 25.7791 25.779C24.4291 27.129 22.8416 28.1978 21.0166 28.9853C19.1916 29.7728 17.2416 30.1665 15.1666 30.1665ZM13.1416 3.354C14.1916 5.104 15.6166 6.51025 17.4166 7.57275C19.2166 8.63525 21.2166 9.1665 23.4166 9.1665C23.7666 9.1665 24.1041 9.14775 24.4291 9.11025C24.7541 9.07275 25.0916 9.029 25.4416 8.979C24.3916 7.229 22.9666 5.82275 21.1666 4.76025C19.3666 3.69775 17.3666 3.1665 15.1666 3.1665C14.8166 3.1665 14.4791 3.18525 14.1541 3.22275C13.8291 3.26025 13.4916 3.304 13.1416 3.354ZM3.80413 11.379C5.07913 10.654 6.19163 9.7165 7.14163 8.5665C8.09163 7.4165 8.80413 6.129 9.27913 4.704C8.00413 5.429 6.89163 6.3665 5.94163 7.5165C4.99163 8.6665 4.27913 9.954 3.80413 11.379Z" fill="#EB2D2E" fill-opacity="0.7"/>
</svg>
