<svg width="31" height="31" viewBox="0 0 31 31" fill="none" xmlns="http://www.w3.org/2000/svg">
<path d="M6.48242 30.2749C5.2982 30.2749 4.12715 29.9691 2.96926 29.3576C1.81136 28.7461 0.877152 27.94 0.166626 26.9393C0.850837 26.9393 1.5482 26.6544 2.25873 26.0846C2.96926 25.5148 3.32452 24.6878 3.32452 23.6038C3.32452 22.214 3.78505 21.0326 4.7061 20.0598C5.62715 19.0869 6.74557 18.6005 8.06136 18.6005C9.37715 18.6005 10.4956 19.0869 11.4166 20.0598C12.3377 21.0326 12.7982 22.214 12.7982 23.6038C12.7982 25.4383 12.1798 27.0088 10.9429 28.3153C9.7061 29.6217 8.21926 30.2749 6.48242 30.2749ZM6.48242 26.9393C7.35084 26.9393 8.09426 26.6127 8.71268 25.9595C9.3311 25.3063 9.64031 24.5211 9.64031 23.6038C9.64031 23.1313 9.48899 22.7352 9.18636 22.4155C8.88373 22.0958 8.50873 21.936 8.06136 21.936C7.61399 21.936 7.23899 22.0958 6.93636 22.4155C6.63373 22.7352 6.48242 23.1313 6.48242 23.6038C6.48242 24.2431 6.41005 24.8268 6.26531 25.355C6.12057 25.8831 5.92978 26.3834 5.69294 26.856C5.82452 26.9115 5.9561 26.9393 6.08768 26.9393H6.48242ZM15.5614 20.2682L11.2193 15.6818L25.3508 0.755223C25.6403 0.449463 26.0022 0.289634 26.4364 0.275736C26.8706 0.261838 27.2456 0.421667 27.5614 0.755223L29.6929 3.00672C30.0087 3.34028 30.1666 3.72943 30.1666 4.17417C30.1666 4.61891 30.0087 5.00806 29.6929 5.34161L15.5614 20.2682Z" fill="#EB2D2E" fill-opacity="0.7"/>
</svg>
