<svg width="50" height="50" viewBox="0 0 50 50" fill="none" xmlns="http://www.w3.org/2000/svg">
<g id="Frame">
<path id="Vector" d="M12.5 43.75C10.9375 43.75 9.39232 43.3681 7.86454 42.6042C6.33676 41.8403 5.10413 40.8334 4.16663 39.5834C5.0694 39.5834 5.98954 39.2275 6.92704 38.5157C7.86454 37.8038 8.33329 36.7709 8.33329 35.4167C8.33329 33.6806 8.94093 32.2049 10.1562 30.9896C11.3715 29.7743 12.8472 29.1667 14.5833 29.1667C16.3194 29.1667 17.7951 29.7743 19.0104 30.9896C20.2257 32.2049 20.8333 33.6806 20.8333 35.4167C20.8333 37.7084 20.0173 39.6702 18.3854 41.3021C16.7534 42.9341 14.7916 43.75 12.5 43.75ZM12.5 39.5834C13.6458 39.5834 14.6267 39.1754 15.4427 38.3594C16.2586 37.5434 16.6666 36.5625 16.6666 35.4167C16.6666 34.8264 16.467 34.3316 16.0677 33.9323C15.6684 33.533 15.1736 33.3334 14.5833 33.3334C13.993 33.3334 13.4982 33.533 13.0989 33.9323C12.6996 34.3316 12.5 34.8264 12.5 35.4167C12.5 36.2153 12.4045 36.9445 12.2135 37.6042C12.0225 38.2639 11.7708 38.8889 11.4583 39.4792C11.6319 39.5486 11.8055 39.5834 11.9791 39.5834H12.5ZM24.4791 31.25L18.75 25.5209L37.3958 6.87502C37.7777 6.49308 38.2552 6.29343 38.8281 6.27607C39.401 6.2587 39.8958 6.45836 40.3125 6.87502L43.125 9.68752C43.5416 10.1042 43.75 10.5903 43.75 11.1459C43.75 11.7014 43.5416 12.1875 43.125 12.6042L24.4791 31.25Z" fill="#B9944C"/>
</g>
</svg>
